<svg width="1512" height="442" viewBox="0 0 1512 442" fill="none" xmlns="http://www.w3.org/2000/svg">
<rect width="1512" height="442" fill="#FEF8E2"/>
<rect x="672.984" y="204.644" width="166.032" height="34.1015" fill="#FCE727"/>
<rect x="336.492" y="137.923" width="166.032" height="34.1015" fill="#FCE727"/>
<rect x="336.492" y="272.847" width="166.032" height="34.1015" fill="#FCE727"/>
<rect x="839.016" y="238.745" width="170.46" height="34.1015" fill="#FCE727"/>
<rect x="1009.48" y="206.127" width="166.032" height="34.1015" fill="#FCE727"/>
<rect x="1175.51" y="172.025" width="168.246" height="34.1015" fill="#FCE727"/>
<rect x="839.016" y="172.025" width="170.46" height="32.6189" fill="#FCE727"/>
<rect x="1009.48" y="139.406" width="166.032" height="34.1015" fill="#FCE727"/>
<rect x="1175.51" y="105.305" width="168.246" height="34.1015" fill="#FCE727"/>
<rect x="1175.51" y="37.1011" width="168.246" height="34.1015" fill="#FCE727"/>
<rect x="1343.75" y="71.2031" width="168.246" height="34.1015" fill="#FCE727"/>
<rect x="1343.75" y="3" width="168.246" height="34.1015" fill="#FCE727"/>
<rect x="336.492" y="206.127" width="166.032" height="34.1015" fill="#FCE727"/>
<rect x="168.246" y="172.025" width="168.246" height="34.1015" fill="#FCE727"/>
<rect x="502.524" y="238.745" width="170.46" height="34.1015" fill="#FCE727"/>
<rect x="502.524" y="172.025" width="170.46" height="32.6189" fill="#FCE727"/>
<rect x="168.246" y="105.305" width="168.246" height="32.6189" fill="#FCE727"/>
<rect y="71.2031" width="168.246" height="34.1015" fill="#FCE727"/>
<rect x="168.246" y="37.1011" width="168.246" height="34.1015" fill="#FCE727"/>
<rect y="3" width="168.246" height="34.1015" fill="#FCE727"/>
<rect y="139.406" width="168.246" height="34.1015" fill="#FCE727"/>
<rect x="168.246" y="240.228" width="168.246" height="32.6189" fill="#FCE727"/>
<rect x="672.984" y="272.847" width="166.032" height="34.1015" fill="#FCE727"/>
<rect x="839.016" y="306.949" width="170.46" height="32.6189" fill="#FCE727"/>
<rect x="1009.48" y="274.33" width="166.032" height="34.1015" fill="#FCE727"/>
<rect x="839.016" y="373.668" width="170.46" height="34.1015" fill="#FCE727"/>
<rect x="672.984" y="339.567" width="166.032" height="34.1015" fill="#FCE727"/>
<rect x="672.984" y="407.771" width="166.032" height="34.1015" fill="#FCE727"/>
<rect x="502.524" y="306.949" width="170.46" height="32.6189" fill="#FCE727"/>
<rect x="502.524" y="373.668" width="170.46" height="34.1015" fill="#FCE727"/>
<rect x="336.492" y="341.05" width="166.032" height="34.1015" fill="#FCE727"/>
</svg>
