<svg width="54" height="56" viewBox="0 0 54 56" fill="none" xmlns="http://www.w3.org/2000/svg">
<path d="M53.7959 27.6202C53.7959 41.5695 43.7251 53.1013 30.6432 54.9732C29.4196 55.1482 28.1681 55.2388 26.898 55.2388C25.4312 55.2388 23.9923 55.118 22.589 54.8858C9.78278 52.769 0 41.3659 0 27.6186C0 12.3652 12.0426 0 26.898 0C41.7534 0 53.7959 12.3652 53.7959 27.6186V27.6202Z" fill="#1C1C1B"/>
<path d="M30.6432 22.1765V28.1929H37.892L36.7443 36.2991H30.6432V54.9734C29.4196 55.1483 28.1681 55.239 26.898 55.239C25.4312 55.239 23.9923 55.1181 22.589 54.8859V36.2991H15.904V28.1929H22.589V20.8326C22.589 16.265 26.1948 12.561 30.6447 12.561V12.5658C30.6571 12.5658 30.6695 12.561 30.6819 12.561H37.8935V19.5699H33.1818C31.7801 19.5699 30.6447 20.7356 30.6447 22.1749L30.6432 22.1765Z" fill="#FEF8E2"/>
</svg>
