<svg width="55" height="56" viewBox="0 0 55 56" fill="none" xmlns="http://www.w3.org/2000/svg">
<path d="M54.5918 27.6202C54.5918 41.5695 44.521 53.1013 31.4391 54.9732C30.2155 55.1482 28.964 55.2388 27.6939 55.2388C26.2271 55.2388 24.7882 55.118 23.3849 54.8858C10.5787 52.769 0.795898 41.3659 0.795898 27.6186C0.795898 12.3652 12.8385 0 27.6939 0C42.5493 0 54.5918 12.3652 54.5918 27.6186V27.6202Z" fill="#1C1C1B"/>
<path d="M36.1167 11.0405H19.2695C14.6151 11.0405 10.8296 14.9274 10.8296 19.7065V35.5324C10.8296 40.3116 14.6151 44.1985 19.2695 44.1985H36.1167C40.7711 44.1985 44.5566 40.3116 44.5566 35.5324V19.7065C44.5566 14.9274 40.7711 11.0405 36.1167 11.0405ZM13.8065 19.7065C13.8065 16.6132 16.2569 14.0972 19.2695 14.0972H36.1167C39.1293 14.0972 41.5796 16.6132 41.5796 19.7065V35.5324C41.5796 38.6257 39.1293 41.1417 36.1167 41.1417H19.2695C16.2569 41.1417 13.8065 38.6257 13.8065 35.5324V19.7065Z" fill="#FEF8E2"/>
<path d="M27.6923 35.6819C32.0215 35.6819 35.5436 32.0654 35.5436 27.6203C35.5436 23.1751 32.0215 19.5586 27.6923 19.5586C23.3632 19.5586 19.841 23.1751 19.841 27.6203C19.841 32.0654 23.3632 35.6819 27.6923 35.6819ZM27.6923 22.6169C30.3797 22.6169 32.5651 24.8609 32.5651 27.6203C32.5651 30.3796 30.3797 32.6236 27.6923 32.6236C25.005 32.6236 22.8195 30.3796 22.8195 27.6203C22.8195 24.8609 25.005 22.6169 27.6923 22.6169Z" fill="#FEF8E2"/>
<path d="M36.2716 20.8596C37.438 20.8596 38.3874 19.8847 38.3874 18.6871C38.3874 17.4896 37.438 16.5146 36.2716 16.5146C35.1053 16.5146 34.1559 17.4896 34.1559 18.6871C34.1559 19.8847 35.1053 20.8596 36.2716 20.8596Z" fill="#FEF8E2"/>
</svg>
